<?xml version="1.0" encoding="utf-8"?>
<svg xmlns="http://www.w3.org/2000/svg" viewBox="45.5613 22.7884 408.8775 454.4233" width="408.877px" height="454.423px" preserveAspectRatio="none"><g transform="matrix(10.351326942443848, 0, 0, 10.351326942443848, 1.0505750179290771, -9.30073165893554)" id="Icons" style=""><g id="XMLID_14503_"><ellipse id="XMLID_14512_" class="st0" cx="24" cy="45.5" rx="11.5" ry="1.5" style="fill: rgb(69, 65, 60); opacity: 0.15;"/><circle id="XMLID_14511_" class="st49" cx="24" cy="22.8" r="19.7" style="fill: rgb(0, 184, 240);"/><path id="XMLID_14510_" class="st96" d="M41.3,13.6c0.5,1.7,0.8,3.4,0.8,5.3C42.1,28.8,34,37,24,37S5.9,28.8,5.9,18.8 c0-1.8,0.3-3.6,0.8-5.3c-1.5,2.8-2.3,5.9-2.3,9.3c0,10.9,8.8,19.7,19.7,19.7s19.7-8.8,19.7-19.7C43.7,19.5,42.8,16.3,41.3,13.6z" style="fill: rgb(0, 159, 217);"/><circle id="XMLID_14509_" class="st3" cx="24" cy="22.8" r="19.7" style="fill: none; stroke: rgb(69, 65, 60); stroke-linecap: round; stroke-linejoin: round; stroke-miterlimit: 10;"/><path id="XMLID_14508_" class="st42" d="M32.7,5.2l-3.8,0.7c-0.1,0-0.1,0-0.2,0.1l-4.6,2.7c-0.1,0-0.2,0.1-0.3,0.1h-3.3 c-0.1,0-0.2,0-0.3,0.1l-5.5,3.7c-0.3,0.2-0.3,0.6,0,0.8l1,0.8c0.1,0.1,0.4,0.1,0.5,0.1l3.7-1.8c0.2-0.1,0.4-0.1,0.5,0l1.4,1 c0.2,0.1,0.5,0.1,0.7-0.1l0.5-0.6c0.1-0.2,0.4-0.2,0.6-0.1l2.1,1c0,0,0.1,0,0.1,0.1l1.3,1.1c0.1,0.1,0.3,0.1,0.4,0.1l1.3-0.2 c0.4-0.1,0.7,0.3,0.6,0.6l-0.4,1.2c-0.1,0.2,0,0.4,0.1,0.5l3.2,2.9c0.1,0.1,0.1,0.2,0.2,0.3l0.3,2c0,0.3,0.4,0.5,0.7,0.4l2.6-1 c0.1,0,0.2-0.1,0.2-0.2l1.5-2C38,19.3,38,19.2,38,19l-0.2-1.3c-0.1-0.4,0.3-0.7,0.6-0.6l1.9,0.6c0.2,0.1,0.3,0.2,0.3,0.4l0.8,3.7 c0.1,0.4,0.6,0.5,0.9,0.2l1.2-1.5C42.7,13.8,38.5,8.1,32.7,5.2z" style="fill: rgb(109, 214, 39); stroke: rgb(69, 65, 60); stroke-linecap: round; stroke-linejoin: round; stroke-miterlimit: 10;"/><path id="XMLID_14507_" class="st42" d="M25.4,4.6l-1.9-0.5c-0.1,0-0.3,0-0.4,0l-2.4,1.3c-0.3,0.2-0.4,0.6-0.1,0.8l0.7,0.5 c0.1,0.1,0.3,0.1,0.4,0.1l2.1-0.5c0,0,0.1,0,0.1,0l1.5-0.8C25.9,5.3,25.9,4.7,25.4,4.6z" style="fill: rgb(109, 214, 39); stroke: rgb(69, 65, 60); stroke-linecap: round; stroke-linejoin: round; stroke-miterlimit: 10;"/><path id="XMLID_14506_" class="st42" d="M28.1,16.8l-5.8,0c-0.1,0-0.2,0-0.4-0.1l-2.3-0.9c-0.1-0.1-0.3-0.1-0.4-0.1L15.3,16 c-0.5,0-1,0.3-1.4,0.7l-2.5,2.6c-0.2,0.2-0.3,0.4-0.3,0.7v3c0,0.3,0.2,0.6,0.4,0.8l1.9,1.3c0.2,0.1,0.4,0.2,0.7,0.2l3.9-0.4 c0.4,0,0.8,0.2,1,0.5l2.6,4.6c0.1,0.2,0.2,0.5,0.1,0.7l-0.5,1.8c-0.1,0.3,0,0.6,0.1,0.8l2.3,3.5c0.2,0.3,0.6,0.5,1,0.4l3.1-0.5 c0.3,0,0.6-0.2,0.7-0.5l2.9-4.9c0.1-0.2,0.1-0.3,0.1-0.5v-2.7c0-0.3,0.1-0.6,0.3-0.8l2.5-2.2c0.5-0.4,0.5-1.1,0-1.5l-1.3-1 l-3.4-2.5c-0.2-0.2-0.4-0.5-0.4-0.8l-0.1-1.8C29.1,17.2,28.6,16.8,28.1,16.8z" style="fill: rgb(109, 214, 39); stroke: rgb(69, 65, 60); stroke-linecap: round; stroke-linejoin: round; stroke-miterlimit: 10;"/><path id="XMLID_14505_" class="st42" d="M34.4,30.4l-1.7,2.4c-0.1,0.1-0.1,0.3-0.1,0.4l0.3,1.5c0.1,0.3,0.5,0.5,0.7,0.3l1.4-0.8 c0.1-0.1,0.2-0.2,0.2-0.3l0.8-3.1c0.1-0.3-0.2-0.6-0.5-0.6h-0.8C34.6,30.2,34.4,30.3,34.4,30.4z" style="fill: rgb(109, 214, 39); stroke: rgb(69, 65, 60); stroke-linecap: round; stroke-linejoin: round; stroke-miterlimit: 10;"/><path id="XMLID_14504_" class="st48" d="M31,11.7l-0.5,1.6c-0.1,0.3,0.1,0.6,0.4,0.6l2.2,0.3c0.2,0,0.4,0,0.5-0.2l0.7-1 c0.2-0.3,0.1-0.6-0.2-0.8l-2.5-1C31.4,11.3,31.1,11.4,31,11.7z" style="fill: rgb(0, 184, 240); stroke: rgb(69, 65, 60); stroke-linecap: round; stroke-linejoin: round; stroke-miterlimit: 10;"/></g></g></svg>